<?xml version="1.0" encoding="utf-8"?>
<!-- Svg Vector Icons : http://www.onlinewebfonts.com/icon -->
<!DOCTYPE svg PUBLIC "-//W3C//DTD SVG 1.1//EN" "http://www.w3.org/Graphics/SVG/1.1/DTD/svg11.dtd">
<svg version="1.1" xmlns="http://www.w3.org/2000/svg" xmlns:xlink="http://www.w3.org/1999/xlink" x="0px" y="0px" viewBox="0 0 256 256" enable-background="new 0 0 256 256" xml:space="preserve">
<metadata> Svg Vector Icons : http://www.onlinewebfonts.com/icon </metadata>
<g><g><g><path fill="#000000" d="M141.4,58.6c-16,2.7-29.9,13-37.3,27.6c-1.4,2.8-2.6,5.2-2.7,5.3c-0.1,0-1.3-0.4-2.7-1c-5.9-2.6-13.7-3.6-20-2.6c-16.8,2.7-29.4,16.2-31.3,33.3l-0.3,3l-3.3,0.3c-11.5,1-21.6,7.1-28,16.8c-4.1,6.3-5.8,12-5.8,20c0,6,0.5,8.4,2.5,13.9c3,8.2,12,17.2,20.2,20.2c7.2,2.7,0.4,2.5,87.6,2.7c59.1,0.1,80.9,0,84-0.4c20.8-2.7,37.7-19.1,41.1-39.9c2-12.3-1-25.2-8.3-35.5c-2.2-3.1-8.6-9.5-11.8-11.6c-5.5-3.7-13.9-7-20.3-7.9c-1.8-0.2-3.5-0.7-3.7-1c-0.2-0.3-0.5-1.5-0.6-2.6c-0.4-2.9-2.4-8.5-4.3-12.3c-2.6-5.3-5.6-9.4-9.8-13.6C174.7,61.2,157.9,55.8,141.4,58.6z M178.8,125c4.8,2,5.9,8.2,2.2,11.9c-3,3-7.2,3-10.2,0C165.1,131.2,171.4,121.8,178.8,125z M82.5,129.2c1.1,1.1,1.2,1.3,1.2,7.4v6.2h6.2c6,0,6.3,0,7.4,1.2c1.1,1.1,1.2,1.4,1.2,6.2s0,5.2-1.2,6.2c-1.1,1.1-1.3,1.2-7.4,1.2h-6.2v6.2c0,6,0,6.3-1.2,7.4c-1.1,1.1-1.4,1.2-6.2,1.2c-4.8,0-5.2,0-6.2-1.2c-1.1-1.1-1.2-1.3-1.2-7.4v-6.2h-6.2c-6,0-6.3,0-7.4-1.2c-1.1-1.1-1.2-1.4-1.2-6.2c0-4.8,0-5.2,1.2-6.2c1.1-1.1,1.3-1.2,7.4-1.2h6.2v-6.2c0-6,0-6.3,1.2-7.4c1.1-1.1,1.4-1.2,6.2-1.2C81,128,81.4,128.1,82.5,129.2z M160.4,143.4c4.8,2,5.9,8.2,2.2,11.9c-3,3-7.2,3-10.2,0C146.6,149.6,152.9,140.3,160.4,143.4z M197.3,143.4c4.8,2,5.9,8.2,2.2,11.9c-3,3-7.2,3-10.2,0C183.5,149.6,189.9,140.3,197.3,143.4z M178.8,161.9c4.8,2,5.9,8.2,2.2,11.9c-3,3-7.2,3-10.2,0C165.1,168.1,171.4,158.8,178.8,161.9z"/></g></g></g>
</svg>